<svg width="16" height="16" viewBox="0 0 16 16" fill="none" xmlns="http://www.w3.org/2000/svg">
<path d="M9.99935 1.33203H3.99935C3.64573 1.33203 3.30659 1.47251 3.05654 1.72256C2.80649 1.9726 2.66602 2.31174 2.66602 2.66536V13.332C2.66602 13.6857 2.80649 14.0248 3.05654 14.2748C3.30659 14.5249 3.64573 14.6654 3.99935 14.6654H11.9993C12.353 14.6654 12.6921 14.5249 12.9422 14.2748C13.1922 14.0248 13.3327 13.6857 13.3327 13.332V4.66536L9.99935 1.33203Z" stroke="#155DFC" stroke-width="1.33333" stroke-linecap="round" stroke-linejoin="round"/>
<path d="M9.33398 1.33203V3.9987C9.33398 4.35232 9.47446 4.69146 9.72451 4.94151C9.97456 5.19156 10.3137 5.33203 10.6673 5.33203H13.334" stroke="#155DFC" stroke-width="1.33333" stroke-linecap="round" stroke-linejoin="round"/>
<path d="M6.66732 6H5.33398" stroke="#155DFC" stroke-width="1.33333" stroke-linecap="round" stroke-linejoin="round"/>
<path d="M10.6673 8.66797H5.33398" stroke="#155DFC" stroke-width="1.33333" stroke-linecap="round" stroke-linejoin="round"/>
<path d="M10.6673 11.332H5.33398" stroke="#155DFC" stroke-width="1.33333" stroke-linecap="round" stroke-linejoin="round"/>
</svg>
